<svg width="31" height="30" viewBox="0 0 31 30" fill="none" xmlns="http://www.w3.org/2000/svg">
<path d="M30.2499 5.93957C29.1509 6.44263 27.9809 6.77336 26.7812 6.92012C28.0539 6.13567 28.9989 4.91631 29.441 3.48818C28.2766 4.19908 26.9896 4.71387 25.6045 4.98352C25.0456 4.36896 24.3643 3.8781 23.6044 3.54248C22.8445 3.20685 22.0228 3.03388 21.192 3.03467C20.2679 3.04412 19.3579 3.26287 18.5305 3.6745C17.703 4.08612 16.9796 4.67992 16.4145 5.41127C15.8495 6.14262 15.4576 6.9925 15.2682 7.89707C15.0788 8.80165 15.0968 9.73738 15.321 10.634C12.9063 10.5022 10.5475 9.85669 8.40218 8.74068C6.25682 7.62467 4.37425 6.06381 2.88016 4.16231C2.10073 5.52587 1.86093 7.13214 2.20813 8.66389C2.55533 10.1956 3.46428 11.5415 4.75547 12.4357C3.7941 12.4007 2.85582 12.1314 2.02218 11.6513V11.7371C2.02218 14.7278 4.10586 17.2282 6.86367 17.8043C5.97652 18.0475 5.04498 18.0811 4.14263 17.9023C4.91481 20.366 7.14558 22.1555 9.78082 22.2045C8.53858 23.2123 7.10613 23.9595 5.56888 24.4017C4.03164 24.844 2.42108 24.9721 0.833252 24.7785C3.5794 26.5896 6.79764 27.553 10.0872 27.5486C21.192 27.5486 27.247 18.1107 27.247 9.93533V9.13863C28.4236 8.26839 29.441 7.17752 30.2499 5.93957Z" fill="white"/>
</svg>
